<svg xmlns="http://www.w3.org/2000/svg" xmlns:xlink="http://www.w3.org/1999/xlink" xml:lang="en" height="215.3pt" width="584.2520000000001pt" viewBox="-76.672 -156.7 584.2520000000001 215.3"><circle cx="161.1" cy="-0.0" r="12.959999999999999" style="stroke:black;fill:none;stroke-width:2.0;stroke-dasharray:-;" /><path d="M 0.0,-144.0 L 36.0,-144.0 L 72.0,-144.0" style="stroke:black;fill:none;stroke-width:2.0;stroke-dasharray:-;stroke-linecap:round;stroke-linejoin:round;" /><path d="M 0.0,-0.0 L 36.0,-0.0 L 72.0,-0.0" style="stroke:black;fill:none;stroke-width:2.0;stroke-dasharray:-;stroke-linecap:round;stroke-linejoin:round;" /><path d="M 72.0,-0.0 L 77.94,-0.0 M 174.06,-0.0 L 180.0,-0.0" style="stroke:black;fill:false;stroke-width:2.0;stroke-dasharray:-;stroke-linecap:round;stroke-linejoin:round;" /><path d="M 77.94,-54.0 L 148.14000000000001,-0.0 L 77.94,54.0 L 77.94,-54.0" style="stroke:black;fill:false;stroke-width:2.0;stroke-dasharray:-;stroke-linecap:round;stroke-linejoin:round;" /><path d="M 72.0,-0.0 L 57.6,-1.7634913907721887e-15 L 43.199999999999996,-3.5269827815443773e-15" style="stroke:black;fill:none;stroke-width:2.0;stroke-dasharray:-;stroke-linecap:round;stroke-linejoin:round;" /><path d="M 324.0,-18.0 L 327.45979187895847,-18.11094879148184 L 330.90536673096335,-18.443339253544707 L 334.3225659498741,-18.99580552248247 L 337.6973475311134,-19.76607739589241 L 341.01584377327555,-20.750989661423898 L 344.26441826348616,-21.946495103314824 L 347.42972191234816,-23.347681133269365 L 350.49874780821267,-24.94878997733698 L 353.4588846653696,-26.743242335840606 L 356.29796864652565,-28.723664419130337 L 359.00433334662057,-30.88191824806674 L 361.56685773258823,-33.20913509472271 L 363.97501184206703,-35.6957519258889 L 366.2189000532736,-38.33155069962839 L 368.2893017482357,-41.10570035340284 L 370.17770920228867,-44.006801311231655 L 371.876362544142,-47.02293232699489 L 373.3782816428539,-50.14169947139072 L 374.67729479068714,-53.35028706124938 L 375.7680640639797,-56.63551032192424 L 376.64610725781847,-59.983869566359026 L 377.3078163043803,-63.381605668197516 L 377.7504720992567,-66.81475660098518 L 377.97225567483713,-70.26921481113061 L 377.97225567483713,-73.73078518886938 L 377.7504720992567,-77.18524339901481 L 377.3078163043803,-80.61839433180246 L 376.64610725781847,-84.01613043364097 L 375.7680640639797,-87.36448967807576 L 374.67729479068714,-90.64971293875061 L 373.3782816428539,-93.85830052860926 L 371.876362544142,-96.97706767300508 L 370.17770920228867,-99.99319868876835 L 368.2893017482357,-102.89429964659715 L 366.2189000532736,-105.6684493003716 L 363.97501184206703,-108.30424807411109 L 361.56685773258823,-110.79086490527727 L 359.00433334662057,-113.11808175193325 L 356.2979686465257,-115.27633558086966 L 353.4588846653696,-117.25675766415938 L 350.49874780821267,-119.05121002266301 L 347.42972191234816,-120.65231886673062 L 344.26441826348616,-122.05350489668515 L 341.01584377327555,-123.2490103385761 L 337.6973475311134,-124.23392260410759 L 334.3225659498741,-125.00419447751753 L 330.90536673096335,-125.55666074645528 L 327.4597918789585,-125.88905120851815 L 324.0,-126.0 L 324.0,-126.0 L 253.79999999999998,-126.0 L 253.79999999999998,-72.0 L 253.79999999999998,-18.0 L 324.0,-18.0" style="stroke:black;fill:false;stroke-width:2.0;stroke-dasharray:-;stroke-linecap:round;stroke-linejoin:round;" /><path d="M 216.0,-45.0 L 253.79999999999998,-45.0" style="stroke:black;fill:false;stroke-width:2.0;stroke-dasharray:-;stroke-linecap:round;stroke-linejoin:round;" /><path d="M 216.0,-99.0 L 253.79999999999998,-99.0" style="stroke:black;fill:false;stroke-width:2.0;stroke-dasharray:-;stroke-linecap:round;stroke-linejoin:round;" /><path d="M 378.0,-72.0 L 415.8,-72.0" style="stroke:black;fill:false;stroke-width:2.0;stroke-dasharray:-;stroke-linecap:round;stroke-linejoin:round;" /><path d="M 129.6,-0.0 L 147.6,-0.0 L 165.6,-0.0" style="stroke:black;fill:none;stroke-width:2.0;stroke-dasharray:-;stroke-linecap:round;stroke-linejoin:round;" /><path d="M 165.6,-0.0 L 165.6,-36.0 L 165.6,-72.0" style="stroke:black;fill:none;stroke-width:2.0;stroke-dasharray:-;stroke-linecap:round;stroke-linejoin:round;" /><path d="M 165.6,-72.0 L 194.39999999999998,-72.0 L 223.2,-72.0" style="stroke:black;fill:none;stroke-width:2.0;stroke-dasharray:-;stroke-linecap:round;stroke-linejoin:round;" /><path d="M 72.0,-144.0 L 144.0,-144.0 L 216.0,-144.0" style="stroke:black;fill:none;stroke-width:2.0;stroke-dasharray:-;stroke-linecap:round;stroke-linejoin:round;" /><path d="M 309.59999999999997,-72.0 L 345.59999999999997,-72.0 L 381.59999999999997,-72.0" style="stroke:black;fill:none;stroke-width:2.0;stroke-dasharray:-;stroke-linecap:round;stroke-linejoin:round;" /><text x="126.0" y="-78.8" dominant-baseline="ideographic" fill="black" font-size="14.0" font-family="sans" text-anchor="middle"><tspan x="126.0" dy="14.0">74HC04</tspan></text><text x="315.90000000000003" y="-150.79999999999998" dominant-baseline="ideographic" fill="black" font-size="14.0" font-family="sans" text-anchor="middle"><tspan x="315.90000000000003" dy="14.0">74HC08</tspan></text><circle cx="0.0" cy="-144.0" r="8.1" style="stroke:black;fill:black;stroke-width:2.0;stroke-dasharray:-;" /><text x="-18.9" y="-158.0" dominant-baseline="central" fill="black" font-size="14.0" font-family="sans" text-anchor="end"><tspan x="-18.9" dy="14.0">A (MSB)</tspan></text><circle cx="0.0" cy="-0.0" r="8.1" style="stroke:black;fill:black;stroke-width:2.0;stroke-dasharray:-;" /><text x="-18.9" y="-14.0" dominant-baseline="central" fill="black" font-size="14.0" font-family="sans" text-anchor="end"><tspan x="-18.9" dy="14.0">C (LSB)</tspan></text><circle cx="381.59999999999997" cy="-72.0" r="8.1" style="stroke:black;fill:black;stroke-width:2.0;stroke-dasharray:-;" /><text x="400.5" y="-86.0" dominant-baseline="central" fill="black" font-size="14.0" font-family="sans" text-anchor="start"><tspan x="400.5" dy="14.0">F (1 = not prime)</tspan></text></svg>