<?xml version="1.0" standalone="no"?>
 <!DOCTYPE svg PUBLIC "-//W3C//DTD SVG 1.1//EN" 
 "http://www.w3.org/Graphics/SVG/1.1/DTD/svg11.dtd"> 
<svg
  xmlns:svg="http://www.w3.org/2000/svg"
  xmlns="http://www.w3.org/2000/svg"
  xmlns:xlink="http://www.w3.org/1999/xlink"
  version="1.1"
  width="297.0022mm" height="210.0072mm" viewBox="0.0000 0.0000 297.0022 210.0072">
<title>SVG Image created as bucket_buckets.kicad_sch.svg date 2026/01/10 06:40:01 </title>
  <desc>Image generated by Eeschema-SVG </desc>
<g style="fill:#000000; fill-opacity:1.0000;stroke:#000000; stroke-opacity:1.0000;
stroke-linecap:round; stroke-linejoin:round;"
 transform="translate(0 0) scale(1 1)">
</g>
<g style="fill:#F5F4EF; fill-opacity:0.0; 
stroke:#F5F4EF; stroke-width:0.0000; stroke-opacity:1; 
stroke-linecap:round; stroke-linejoin:round;">
</g>
<g style="fill:#F5F4EF; fill-opacity:1.0000; 
stroke:#F5F4EF; stroke-width:0.0001; stroke-opacity:1; 
stroke-linecap:round; stroke-linejoin:round;">
<rect x="0.000000" y="0.000000" width="297.002200" height="210.007200" rx="0.000000" />
</g>
<g style="fill:#840000; fill-opacity:1.0000; 
stroke:#840000; stroke-width:0.0001; stroke-opacity:1; 
stroke-linecap:round; stroke-linejoin:round;">
</g>
<g style="fill:#840000; fill-opacity:1.0000; 
stroke:#840000; stroke-width:0.1524; stroke-opacity:1; 
stroke-linecap:round; stroke-linejoin:round;">
</g>
<g style="fill:#840000; fill-opacity:0.0; 
stroke:#840000; stroke-width:0.1524; stroke-opacity:1; 
stroke-linecap:round; stroke-linejoin:round;">
<path d="M177.0022 166.0072
L285.0022 166.0072
L285.0022 198.0072
L177.0022 198.0072
L177.0022 166.0072
" />
<path d="M10.0000 10.0000
L287.0022 10.0000
L287.0022 200.0072
L10.0000 200.0072
L10.0000 10.0000
" />
<path d="M12.0000 12.0000
L285.0022 12.0000
L285.0022 198.0072
L12.0000 198.0072
L12.0000 12.0000
" />
<path d="M60.0000 12.0000
L60.0000 10.0000
" />
<path d="M110.0000 12.0000
L110.0000 10.0000
" />
<path d="M160.0000 12.0000
L160.0000 10.0000
" />
<path d="M210.0000 12.0000
L210.0000 10.0000
" />
<path d="M260.0000 12.0000
L260.0000 10.0000
" />
<text x="35.0000" y="11.6500"
textLength="1.4353" font-size="1.7333" lengthAdjust="spacingAndGlyphs"
text-anchor="start" opacity="0">1</text>
<g class="stroked-text"><desc>1</desc>
<path d="M36.0906 11.5935
L35.3478 11.5935
" />
<path d="M35.7192 11.5935
L35.7192 10.2935
" />
<path d="M35.7192 10.2935
L35.5954 10.4792
" />
<path d="M35.5954 10.4792
L35.4716 10.6030
" />
<path d="M35.4716 10.6030
L35.3478 10.6649
" />
</g><text x="85.0000" y="11.6500"
textLength="1.4353" font-size="1.7333" lengthAdjust="spacingAndGlyphs"
text-anchor="start" opacity="0">2</text>
<g class="stroked-text"><desc>2</desc>
<path d="M85.3478 10.4173
L85.4097 10.3554
" />
<path d="M85.4097 10.3554
L85.5335 10.2935
" />
<path d="M85.5335 10.2935
L85.8430 10.2935
" />
<path d="M85.8430 10.2935
L85.9668 10.3554
" />
<path d="M85.9668 10.3554
L86.0287 10.4173
" />
<path d="M86.0287 10.4173
L86.0906 10.5411
" />
<path d="M86.0906 10.5411
L86.0906 10.6649
" />
<path d="M86.0906 10.6649
L86.0287 10.8506
" />
<path d="M86.0287 10.8506
L85.2859 11.5935
" />
<path d="M85.2859 11.5935
L86.0906 11.5935
" />
</g><text x="135.0000" y="11.6500"
textLength="1.4353" font-size="1.7333" lengthAdjust="spacingAndGlyphs"
text-anchor="start" opacity="0">3</text>
<g class="stroked-text"><desc>3</desc>
<path d="M135.2859 10.2935
L136.0906 10.2935
" />
<path d="M136.0906 10.2935
L135.6573 10.7887
" />
<path d="M135.6573 10.7887
L135.8430 10.7887
" />
<path d="M135.8430 10.7887
L135.9668 10.8506
" />
<path d="M135.9668 10.8506
L136.0287 10.9125
" />
<path d="M136.0287 10.9125
L136.0906 11.0363
" />
<path d="M136.0906 11.0363
L136.0906 11.3458
" />
<path d="M136.0906 11.3458
L136.0287 11.4696
" />
<path d="M136.0287 11.4696
L135.9668 11.5316
" />
<path d="M135.9668 11.5316
L135.8430 11.5935
" />
<path d="M135.8430 11.5935
L135.4716 11.5935
" />
<path d="M135.4716 11.5935
L135.3478 11.5316
" />
<path d="M135.3478 11.5316
L135.2859 11.4696
" />
</g><text x="185.0000" y="11.6500"
textLength="1.4353" font-size="1.7333" lengthAdjust="spacingAndGlyphs"
text-anchor="start" opacity="0">4</text>
<g class="stroked-text"><desc>4</desc>
<path d="M185.9668 10.7268
L185.9668 11.5935
" />
<path d="M185.6573 10.2316
L185.3478 11.1601
" />
<path d="M185.3478 11.1601
L186.1525 11.1601
" />
</g><text x="235.0000" y="11.6500"
textLength="1.4353" font-size="1.7333" lengthAdjust="spacingAndGlyphs"
text-anchor="start" opacity="0">5</text>
<g class="stroked-text"><desc>5</desc>
<path d="M236.0287 10.2935
L235.4097 10.2935
" />
<path d="M235.4097 10.2935
L235.3478 10.9125
" />
<path d="M235.3478 10.9125
L235.4097 10.8506
" />
<path d="M235.4097 10.8506
L235.5335 10.7887
" />
<path d="M235.5335 10.7887
L235.8430 10.7887
" />
<path d="M235.8430 10.7887
L235.9668 10.8506
" />
<path d="M235.9668 10.8506
L236.0287 10.9125
" />
<path d="M236.0287 10.9125
L236.0906 11.0363
" />
<path d="M236.0906 11.0363
L236.0906 11.3458
" />
<path d="M236.0906 11.3458
L236.0287 11.4696
" />
<path d="M236.0287 11.4696
L235.9668 11.5316
" />
<path d="M235.9668 11.5316
L235.8430 11.5935
" />
<path d="M235.8430 11.5935
L235.5335 11.5935
" />
<path d="M235.5335 11.5935
L235.4097 11.5316
" />
<path d="M235.4097 11.5316
L235.3478 11.4696
" />
</g><text x="285.0000" y="11.6500"
textLength="1.4353" font-size="1.7333" lengthAdjust="spacingAndGlyphs"
text-anchor="start" opacity="0">6</text>
<g class="stroked-text"><desc>6</desc>
<path d="M285.9668 10.2935
L285.7192 10.2935
" />
<path d="M285.7192 10.2935
L285.5954 10.3554
" />
<path d="M285.5954 10.3554
L285.5335 10.4173
" />
<path d="M285.5335 10.4173
L285.4097 10.6030
" />
<path d="M285.4097 10.6030
L285.3478 10.8506
" />
<path d="M285.3478 10.8506
L285.3478 11.3458
" />
<path d="M285.3478 11.3458
L285.4097 11.4696
" />
<path d="M285.4097 11.4696
L285.4716 11.5316
" />
<path d="M285.4716 11.5316
L285.5954 11.5935
" />
<path d="M285.5954 11.5935
L285.8430 11.5935
" />
<path d="M285.8430 11.5935
L285.9668 11.5316
" />
<path d="M285.9668 11.5316
L286.0287 11.4696
" />
<path d="M286.0287 11.4696
L286.0906 11.3458
" />
<path d="M286.0906 11.3458
L286.0906 11.0363
" />
<path d="M286.0906 11.0363
L286.0287 10.9125
" />
<path d="M286.0287 10.9125
L285.9668 10.8506
" />
<path d="M285.9668 10.8506
L285.8430 10.7887
" />
<path d="M285.8430 10.7887
L285.5954 10.7887
" />
<path d="M285.5954 10.7887
L285.4716 10.8506
" />
<path d="M285.4716 10.8506
L285.4097 10.9125
" />
<path d="M285.4097 10.9125
L285.3478 11.0363
" />
</g><path d="M60.0000 198.0072
L60.0000 200.0072
" />
<path d="M110.0000 198.0072
L110.0000 200.0072
" />
<path d="M160.0000 198.0072
L160.0000 200.0072
" />
<path d="M210.0000 198.0072
L210.0000 200.0072
" />
<path d="M260.0000 198.0072
L260.0000 200.0072
" />
<text x="35.0000" y="199.6572"
textLength="1.4353" font-size="1.7333" lengthAdjust="spacingAndGlyphs"
text-anchor="start" opacity="0">1</text>
<g class="stroked-text"><desc>1</desc>
<path d="M36.0906 199.6007
L35.3478 199.6007
" />
<path d="M35.7192 199.6007
L35.7192 198.3007
" />
<path d="M35.7192 198.3007
L35.5954 198.4864
" />
<path d="M35.5954 198.4864
L35.4716 198.6102
" />
<path d="M35.4716 198.6102
L35.3478 198.6721
" />
</g><text x="85.0000" y="199.6572"
textLength="1.4353" font-size="1.7333" lengthAdjust="spacingAndGlyphs"
text-anchor="start" opacity="0">2</text>
<g class="stroked-text"><desc>2</desc>
<path d="M85.3478 198.4245
L85.4097 198.3626
" />
<path d="M85.4097 198.3626
L85.5335 198.3007
" />
<path d="M85.5335 198.3007
L85.8430 198.3007
" />
<path d="M85.8430 198.3007
L85.9668 198.3626
" />
<path d="M85.9668 198.3626
L86.0287 198.4245
" />
<path d="M86.0287 198.4245
L86.0906 198.5483
" />
<path d="M86.0906 198.5483
L86.0906 198.6721
" />
<path d="M86.0906 198.6721
L86.0287 198.8578
" />
<path d="M86.0287 198.8578
L85.2859 199.6007
" />
<path d="M85.2859 199.6007
L86.0906 199.6007
" />
</g><text x="135.0000" y="199.6572"
textLength="1.4353" font-size="1.7333" lengthAdjust="spacingAndGlyphs"
text-anchor="start" opacity="0">3</text>
<g class="stroked-text"><desc>3</desc>
<path d="M135.2859 198.3007
L136.0906 198.3007
" />
<path d="M136.0906 198.3007
L135.6573 198.7959
" />
<path d="M135.6573 198.7959
L135.8430 198.7959
" />
<path d="M135.8430 198.7959
L135.9668 198.8578
" />
<path d="M135.9668 198.8578
L136.0287 198.9197
" />
<path d="M136.0287 198.9197
L136.0906 199.0435
" />
<path d="M136.0906 199.0435
L136.0906 199.3530
" />
<path d="M136.0906 199.3530
L136.0287 199.4768
" />
<path d="M136.0287 199.4768
L135.9668 199.5388
" />
<path d="M135.9668 199.5388
L135.8430 199.6007
" />
<path d="M135.8430 199.6007
L135.4716 199.6007
" />
<path d="M135.4716 199.6007
L135.3478 199.5388
" />
<path d="M135.3478 199.5388
L135.2859 199.4768
" />
</g><text x="185.0000" y="199.6572"
textLength="1.4353" font-size="1.7333" lengthAdjust="spacingAndGlyphs"
text-anchor="start" opacity="0">4</text>
<g class="stroked-text"><desc>4</desc>
<path d="M185.9668 198.7340
L185.9668 199.6007
" />
<path d="M185.6573 198.2388
L185.3478 199.1673
" />
<path d="M185.3478 199.1673
L186.1525 199.1673
" />
</g><text x="235.0000" y="199.6572"
textLength="1.4353" font-size="1.7333" lengthAdjust="spacingAndGlyphs"
text-anchor="start" opacity="0">5</text>
<g class="stroked-text"><desc>5</desc>
<path d="M236.0287 198.3007
L235.4097 198.3007
" />
<path d="M235.4097 198.3007
L235.3478 198.9197
" />
<path d="M235.3478 198.9197
L235.4097 198.8578
" />
<path d="M235.4097 198.8578
L235.5335 198.7959
" />
<path d="M235.5335 198.7959
L235.8430 198.7959
" />
<path d="M235.8430 198.7959
L235.9668 198.8578
" />
<path d="M235.9668 198.8578
L236.0287 198.9197
" />
<path d="M236.0287 198.9197
L236.0906 199.0435
" />
<path d="M236.0906 199.0435
L236.0906 199.3530
" />
<path d="M236.0906 199.3530
L236.0287 199.4768
" />
<path d="M236.0287 199.4768
L235.9668 199.5388
" />
<path d="M235.9668 199.5388
L235.8430 199.6007
" />
<path d="M235.8430 199.6007
L235.5335 199.6007
" />
<path d="M235.5335 199.6007
L235.4097 199.5388
" />
<path d="M235.4097 199.5388
L235.3478 199.4768
" />
</g><text x="285.0000" y="199.6572"
textLength="1.4353" font-size="1.7333" lengthAdjust="spacingAndGlyphs"
text-anchor="start" opacity="0">6</text>
<g class="stroked-text"><desc>6</desc>
<path d="M285.9668 198.3007
L285.7192 198.3007
" />
<path d="M285.7192 198.3007
L285.5954 198.3626
" />
<path d="M285.5954 198.3626
L285.5335 198.4245
" />
<path d="M285.5335 198.4245
L285.4097 198.6102
" />
<path d="M285.4097 198.6102
L285.3478 198.8578
" />
<path d="M285.3478 198.8578
L285.3478 199.3530
" />
<path d="M285.3478 199.3530
L285.4097 199.4768
" />
<path d="M285.4097 199.4768
L285.4716 199.5388
" />
<path d="M285.4716 199.5388
L285.5954 199.6007
" />
<path d="M285.5954 199.6007
L285.8430 199.6007
" />
<path d="M285.8430 199.6007
L285.9668 199.5388
" />
<path d="M285.9668 199.5388
L286.0287 199.4768
" />
<path d="M286.0287 199.4768
L286.0906 199.3530
" />
<path d="M286.0906 199.3530
L286.0906 199.0435
" />
<path d="M286.0906 199.0435
L286.0287 198.9197
" />
<path d="M286.0287 198.9197
L285.9668 198.8578
" />
<path d="M285.9668 198.8578
L285.8430 198.7959
" />
<path d="M285.8430 198.7959
L285.5954 198.7959
" />
<path d="M285.5954 198.7959
L285.4716 198.8578
" />
<path d="M285.4716 198.8578
L285.4097 198.9197
" />
<path d="M285.4097 198.9197
L285.3478 199.0435
" />
</g><path d="M10.0000 60.0000
L12.0000 60.0000
" />
<path d="M10.0000 110.0000
L12.0000 110.0000
" />
<path d="M10.0000 160.0000
L12.0000 160.0000
" />
<text x="11.0000" y="35.6500"
textLength="1.3115" font-size="1.7333" lengthAdjust="spacingAndGlyphs"
text-anchor="middle" opacity="0">A</text>
<g class="stroked-text"><desc>A</desc>
<path d="M10.6905 35.2220
L11.3095 35.2220
" />
<path d="M10.5667 35.5935
L11.0000 34.2935
" />
<path d="M11.0000 34.2935
L11.4333 35.5935
" />
</g><text x="11.0000" y="85.6500"
textLength="1.4972" font-size="1.7333" lengthAdjust="spacingAndGlyphs"
text-anchor="middle" opacity="0">B</text>
<g class="stroked-text"><desc>B</desc>
<path d="M11.0928 84.9125
L11.2785 84.9744
" />
<path d="M11.2785 84.9744
L11.3404 85.0363
" />
<path d="M11.3404 85.0363
L11.4023 85.1601
" />
<path d="M11.4023 85.1601
L11.4023 85.3458
" />
<path d="M11.4023 85.3458
L11.3404 85.4696
" />
<path d="M11.3404 85.4696
L11.2785 85.5316
" />
<path d="M11.2785 85.5316
L11.1547 85.5935
" />
<path d="M11.1547 85.5935
L10.6595 85.5935
" />
<path d="M10.6595 85.5935
L10.6595 84.2935
" />
<path d="M10.6595 84.2935
L11.0928 84.2935
" />
<path d="M11.0928 84.2935
L11.2166 84.3554
" />
<path d="M11.2166 84.3554
L11.2785 84.4173
" />
<path d="M11.2785 84.4173
L11.3404 84.5411
" />
<path d="M11.3404 84.5411
L11.3404 84.6649
" />
<path d="M11.3404 84.6649
L11.2785 84.7887
" />
<path d="M11.2785 84.7887
L11.2166 84.8506
" />
<path d="M11.2166 84.8506
L11.0928 84.9125
" />
<path d="M11.0928 84.9125
L10.6595 84.9125
" />
</g><text x="11.0000" y="135.6500"
textLength="1.4972" font-size="1.7333" lengthAdjust="spacingAndGlyphs"
text-anchor="middle" opacity="0">C</text>
<g class="stroked-text"><desc>C</desc>
<path d="M11.4023 135.4696
L11.3404 135.5316
" />
<path d="M11.3404 135.5316
L11.1547 135.5935
" />
<path d="M11.1547 135.5935
L11.0309 135.5935
" />
<path d="M11.0309 135.5935
L10.8452 135.5316
" />
<path d="M10.8452 135.5316
L10.7214 135.4077
" />
<path d="M10.7214 135.4077
L10.6595 135.2839
" />
<path d="M10.6595 135.2839
L10.5976 135.0363
" />
<path d="M10.5976 135.0363
L10.5976 134.8506
" />
<path d="M10.5976 134.8506
L10.6595 134.6030
" />
<path d="M10.6595 134.6030
L10.7214 134.4792
" />
<path d="M10.7214 134.4792
L10.8452 134.3554
" />
<path d="M10.8452 134.3554
L11.0309 134.2935
" />
<path d="M11.0309 134.2935
L11.1547 134.2935
" />
<path d="M11.1547 134.2935
L11.3404 134.3554
" />
<path d="M11.3404 134.3554
L11.4023 134.4173
" />
</g><text x="11.0000" y="185.6500"
textLength="1.4972" font-size="1.7333" lengthAdjust="spacingAndGlyphs"
text-anchor="middle" opacity="0">D</text>
<g class="stroked-text"><desc>D</desc>
<path d="M10.6595 185.5935
L10.6595 184.2935
" />
<path d="M10.6595 184.2935
L10.9690 184.2935
" />
<path d="M10.9690 184.2935
L11.1547 184.3554
" />
<path d="M11.1547 184.3554
L11.2785 184.4792
" />
<path d="M11.2785 184.4792
L11.3404 184.6030
" />
<path d="M11.3404 184.6030
L11.4023 184.8506
" />
<path d="M11.4023 184.8506
L11.4023 185.0363
" />
<path d="M11.4023 185.0363
L11.3404 185.2839
" />
<path d="M11.3404 185.2839
L11.2785 185.4077
" />
<path d="M11.2785 185.4077
L11.1547 185.5316
" />
<path d="M11.1547 185.5316
L10.9690 185.5935
" />
<path d="M10.9690 185.5935
L10.6595 185.5935
" />
</g><path d="M287.0022 60.0000
L285.0022 60.0000
" />
<path d="M287.0022 110.0000
L285.0022 110.0000
" />
<path d="M287.0022 160.0000
L285.0022 160.0000
" />
<text x="286.0022" y="35.6500"
textLength="1.3115" font-size="1.7333" lengthAdjust="spacingAndGlyphs"
text-anchor="middle" opacity="0">A</text>
<g class="stroked-text"><desc>A</desc>
<path d="M285.6927 35.2220
L286.3117 35.2220
" />
<path d="M285.5689 35.5935
L286.0022 34.2935
" />
<path d="M286.0022 34.2935
L286.4355 35.5935
" />
</g><text x="286.0022" y="85.6500"
textLength="1.4972" font-size="1.7333" lengthAdjust="spacingAndGlyphs"
text-anchor="middle" opacity="0">B</text>
<g class="stroked-text"><desc>B</desc>
<path d="M286.0950 84.9125
L286.2807 84.9744
" />
<path d="M286.2807 84.9744
L286.3426 85.0363
" />
<path d="M286.3426 85.0363
L286.4045 85.1601
" />
<path d="M286.4045 85.1601
L286.4045 85.3458
" />
<path d="M286.4045 85.3458
L286.3426 85.4696
" />
<path d="M286.3426 85.4696
L286.2807 85.5316
" />
<path d="M286.2807 85.5316
L286.1569 85.5935
" />
<path d="M286.1569 85.5935
L285.6617 85.5935
" />
<path d="M285.6617 85.5935
L285.6617 84.2935
" />
<path d="M285.6617 84.2935
L286.0950 84.2935
" />
<path d="M286.0950 84.2935
L286.2188 84.3554
" />
<path d="M286.2188 84.3554
L286.2807 84.4173
" />
<path d="M286.2807 84.4173
L286.3426 84.5411
" />
<path d="M286.3426 84.5411
L286.3426 84.6649
" />
<path d="M286.3426 84.6649
L286.2807 84.7887
" />
<path d="M286.2807 84.7887
L286.2188 84.8506
" />
<path d="M286.2188 84.8506
L286.0950 84.9125
" />
<path d="M286.0950 84.9125
L285.6617 84.9125
" />
</g><text x="286.0022" y="135.6500"
textLength="1.4972" font-size="1.7333" lengthAdjust="spacingAndGlyphs"
text-anchor="middle" opacity="0">C</text>
<g class="stroked-text"><desc>C</desc>
<path d="M286.4045 135.4696
L286.3426 135.5316
" />
<path d="M286.3426 135.5316
L286.1569 135.5935
" />
<path d="M286.1569 135.5935
L286.0331 135.5935
" />
<path d="M286.0331 135.5935
L285.8474 135.5316
" />
<path d="M285.8474 135.5316
L285.7236 135.4077
" />
<path d="M285.7236 135.4077
L285.6617 135.2839
" />
<path d="M285.6617 135.2839
L285.5998 135.0363
" />
<path d="M285.5998 135.0363
L285.5998 134.8506
" />
<path d="M285.5998 134.8506
L285.6617 134.6030
" />
<path d="M285.6617 134.6030
L285.7236 134.4792
" />
<path d="M285.7236 134.4792
L285.8474 134.3554
" />
<path d="M285.8474 134.3554
L286.0331 134.2935
" />
<path d="M286.0331 134.2935
L286.1569 134.2935
" />
<path d="M286.1569 134.2935
L286.3426 134.3554
" />
<path d="M286.3426 134.3554
L286.4045 134.4173
" />
</g><text x="286.0022" y="185.6500"
textLength="1.4972" font-size="1.7333" lengthAdjust="spacingAndGlyphs"
text-anchor="middle" opacity="0">D</text>
<g class="stroked-text"><desc>D</desc>
<path d="M285.6617 185.5935
L285.6617 184.2935
" />
<path d="M285.6617 184.2935
L285.9712 184.2935
" />
<path d="M285.9712 184.2935
L286.1569 184.3554
" />
<path d="M286.1569 184.3554
L286.2807 184.4792
" />
<path d="M286.2807 184.4792
L286.3426 184.6030
" />
<path d="M286.3426 184.6030
L286.4045 184.8506
" />
<path d="M286.4045 184.8506
L286.4045 185.0363
" />
<path d="M286.4045 185.0363
L286.3426 185.2839
" />
<path d="M286.3426 185.2839
L286.2807 185.4077
" />
<path d="M286.2807 185.4077
L286.1569 185.5316
" />
<path d="M286.1569 185.5316
L285.9712 185.5935
" />
<path d="M285.9712 185.5935
L285.6617 185.5935
" />
</g><text x="200.0022" y="193.8572"
textLength="7.0143" font-size="2.0000" lengthAdjust="spacingAndGlyphs"
text-anchor="start" opacity="0">Date: </text>
<g class="stroked-text"><desc>Date: </desc>
<path d="M200.4595 193.7931
L200.4595 192.2931
" />
<path d="M200.4595 192.2931
L200.8166 192.2931
" />
<path d="M200.8166 192.2931
L201.0309 192.3645
" />
<path d="M201.0309 192.3645
L201.1738 192.5074
" />
<path d="M201.1738 192.5074
L201.2452 192.6502
" />
<path d="M201.2452 192.6502
L201.3166 192.9359
" />
<path d="M201.3166 192.9359
L201.3166 193.1502
" />
<path d="M201.3166 193.1502
L201.2452 193.4359
" />
<path d="M201.2452 193.4359
L201.1738 193.5788
" />
<path d="M201.1738 193.5788
L201.0309 193.7217
" />
<path d="M201.0309 193.7217
L200.8166 193.7931
" />
<path d="M200.8166 193.7931
L200.4595 193.7931
" />
<path d="M202.6024 193.7931
L202.6024 193.0074
" />
<path d="M202.6024 193.0074
L202.5309 192.8645
" />
<path d="M202.5309 192.8645
L202.3881 192.7931
" />
<path d="M202.3881 192.7931
L202.1024 192.7931
" />
<path d="M202.1024 192.7931
L201.9595 192.8645
" />
<path d="M202.6024 193.7217
L202.4595 193.7931
" />
<path d="M202.4595 193.7931
L202.1024 193.7931
" />
<path d="M202.1024 193.7931
L201.9595 193.7217
" />
<path d="M201.9595 193.7217
L201.8881 193.5788
" />
<path d="M201.8881 193.5788
L201.8881 193.4359
" />
<path d="M201.8881 193.4359
L201.9595 193.2931
" />
<path d="M201.9595 193.2931
L202.1024 193.2217
" />
<path d="M202.1024 193.2217
L202.4595 193.2217
" />
<path d="M202.4595 193.2217
L202.6024 193.1502
" />
<path d="M203.1023 192.7931
L203.6737 192.7931
" />
<path d="M203.3166 192.2931
L203.3166 193.5788
" />
<path d="M203.3166 193.5788
L203.3880 193.7217
" />
<path d="M203.3880 193.7217
L203.5309 193.7931
" />
<path d="M203.5309 193.7931
L203.6737 193.7931
" />
<path d="M204.7451 193.7217
L204.6023 193.7931
" />
<path d="M204.6023 193.7931
L204.3166 193.7931
" />
<path d="M204.3166 193.7931
L204.1737 193.7217
" />
<path d="M204.1737 193.7217
L204.1023 193.5788
" />
<path d="M204.1023 193.5788
L204.1023 193.0074
" />
<path d="M204.1023 193.0074
L204.1737 192.8645
" />
<path d="M204.1737 192.8645
L204.3166 192.7931
" />
<path d="M204.3166 192.7931
L204.6023 192.7931
" />
<path d="M204.6023 192.7931
L204.7451 192.8645
" />
<path d="M204.7451 192.8645
L204.8166 193.0074
" />
<path d="M204.8166 193.0074
L204.8166 193.1502
" />
<path d="M204.8166 193.1502
L204.1023 193.2931
" />
<path d="M205.4594 193.6502
L205.5308 193.7217
" />
<path d="M205.5308 193.7217
L205.4594 193.7931
" />
<path d="M205.4594 193.7931
L205.3880 193.7217
" />
<path d="M205.3880 193.7217
L205.4594 193.6502
" />
<path d="M205.4594 193.6502
L205.4594 193.7931
" />
<path d="M205.4594 192.8645
L205.5308 192.9359
" />
<path d="M205.5308 192.9359
L205.4594 193.0074
" />
<path d="M205.4594 193.0074
L205.3880 192.9359
" />
<path d="M205.3880 192.9359
L205.4594 192.8645
" />
<path d="M205.4594 192.8645
L205.4594 193.0074
" />
</g><path d="M177.0022 194.5072
L285.0022 194.5072
" />
<text x="178.0022" y="196.6572"
textLength="52.0856" font-size="2.0000" lengthAdjust="spacingAndGlyphs"
text-anchor="start" opacity="0">KiCad E.D.A.  kicad-cli 7.0.11+dfsg-1build4</text>
<g class="stroked-text"><desc>KiCad E.D.A.  kicad-cli 7.0.11+dfsg-1build4</desc>
<path d="M178.4595 196.5931
L178.4595 195.0931
" />
<path d="M179.3166 196.5931
L178.6738 195.7359
" />
<path d="M179.3166 195.0931
L178.4595 195.9502
" />
<path d="M179.9595 196.5931
L179.9595 195.5931
" />
<path d="M179.9595 195.0931
L179.8881 195.1645
" />
<path d="M179.8881 195.1645
L179.9595 195.2359
" />
<path d="M179.9595 195.2359
L180.0309 195.1645
" />
<path d="M180.0309 195.1645
L179.9595 195.0931
" />
<path d="M179.9595 195.0931
L179.9595 195.2359
" />
<path d="M181.5309 196.4502
L181.4595 196.5217
" />
<path d="M181.4595 196.5217
L181.2452 196.5931
" />
<path d="M181.2452 196.5931
L181.1024 196.5931
" />
<path d="M181.1024 196.5931
L180.8881 196.5217
" />
<path d="M180.8881 196.5217
L180.7452 196.3788
" />
<path d="M180.7452 196.3788
L180.6738 196.2359
" />
<path d="M180.6738 196.2359
L180.6024 195.9502
" />
<path d="M180.6024 195.9502
L180.6024 195.7359
" />
<path d="M180.6024 195.7359
L180.6738 195.4502
" />
<path d="M180.6738 195.4502
L180.7452 195.3074
" />
<path d="M180.7452 195.3074
L180.8881 195.1645
" />
<path d="M180.8881 195.1645
L181.1024 195.0931
" />
<path d="M181.1024 195.0931
L181.2452 195.0931
" />
<path d="M181.2452 195.0931
L181.4595 195.1645
" />
<path d="M181.4595 195.1645
L181.5309 195.2359
" />
<path d="M182.8167 196.5931
L182.8167 195.8074
" />
<path d="M182.8167 195.8074
L182.7452 195.6645
" />
<path d="M182.7452 195.6645
L182.6024 195.5931
" />
<path d="M182.6024 195.5931
L182.3167 195.5931
" />
<path d="M182.3167 195.5931
L182.1738 195.6645
" />
<path d="M182.8167 196.5217
L182.6738 196.5931
" />
<path d="M182.6738 196.5931
L182.3167 196.5931
" />
<path d="M182.3167 196.5931
L182.1738 196.5217
" />
<path d="M182.1738 196.5217
L182.1024 196.3788
" />
<path d="M182.1024 196.3788
L182.1024 196.2359
" />
<path d="M182.1024 196.2359
L182.1738 196.0931
" />
<path d="M182.1738 196.0931
L182.3167 196.0217
" />
<path d="M182.3167 196.0217
L182.6738 196.0217
" />
<path d="M182.6738 196.0217
L182.8167 195.9502
" />
<path d="M184.1738 196.5931
L184.1738 195.0931
" />
<path d="M184.1738 196.5217
L184.0309 196.5931
" />
<path d="M184.0309 196.5931
L183.7452 196.5931
" />
<path d="M183.7452 196.5931
L183.6023 196.5217
" />
<path d="M183.6023 196.5217
L183.5309 196.4502
" />
<path d="M183.5309 196.4502
L183.4595 196.3074
" />
<path d="M183.4595 196.3074
L183.4595 195.8788
" />
<path d="M183.4595 195.8788
L183.5309 195.7359
" />
<path d="M183.5309 195.7359
L183.6023 195.6645
" />
<path d="M183.6023 195.6645
L183.7452 195.5931
" />
<path d="M183.7452 195.5931
L184.0309 195.5931
" />
<path d="M184.0309 195.5931
L184.1738 195.6645
" />
<path d="M186.0309 195.8074
L186.5309 195.8074
" />
<path d="M186.7452 196.5931
L186.0309 196.5931
" />
<path d="M186.0309 196.5931
L186.0309 195.0931
" />
<path d="M186.0309 195.0931
L186.7452 195.0931
" />
<path d="M187.3880 196.4502
L187.4594 196.5217
" />
<path d="M187.4594 196.5217
L187.3880 196.5931
" />
<path d="M187.3880 196.5931
L187.3166 196.5217
" />
<path d="M187.3166 196.5217
L187.3880 196.4502
" />
<path d="M187.3880 196.4502
L187.3880 196.5931
" />
<path d="M188.1023 196.5931
L188.1023 195.0931
" />
<path d="M188.1023 195.0931
L188.4594 195.0931
" />
<path d="M188.4594 195.0931
L188.6737 195.1645
" />
<path d="M188.6737 195.1645
L188.8166 195.3074
" />
<path d="M188.8166 195.3074
L188.8880 195.4502
" />
<path d="M188.8880 195.4502
L188.9594 195.7359
" />
<path d="M188.9594 195.7359
L188.9594 195.9502
" />
<path d="M188.9594 195.9502
L188.8880 196.2359
" />
<path d="M188.8880 196.2359
L188.8166 196.3788
" />
<path d="M188.8166 196.3788
L188.6737 196.5217
" />
<path d="M188.6737 196.5217
L188.4594 196.5931
" />
<path d="M188.4594 196.5931
L188.1023 196.5931
" />
<path d="M189.6023 196.4502
L189.6737 196.5217
" />
<path d="M189.6737 196.5217
L189.6023 196.5931
" />
<path d="M189.6023 196.5931
L189.5309 196.5217
" />
<path d="M189.5309 196.5217
L189.6023 196.4502
" />
<path d="M189.6023 196.4502
L189.6023 196.5931
" />
<path d="M190.2452 196.1645
L190.9595 196.1645
" />
<path d="M190.1023 196.5931
L190.6023 195.0931
" />
<path d="M190.6023 195.0931
L191.1023 196.5931
" />
<path d="M191.6023 196.4502
L191.6737 196.5217
" />
<path d="M191.6737 196.5217
L191.6023 196.5931
" />
<path d="M191.6023 196.5931
L191.5309 196.5217
" />
<path d="M191.5309 196.5217
L191.6023 196.4502
" />
<path d="M191.6023 196.4502
L191.6023 196.5931
" />
<path d="M194.6024 196.5931
L194.6024 195.0931
" />
<path d="M194.7453 196.0217
L195.1738 196.5931
" />
<path d="M195.1738 195.5931
L194.6024 196.1645
" />
<path d="M195.8167 196.5931
L195.8167 195.5931
" />
<path d="M195.8167 195.0931
L195.7453 195.1645
" />
<path d="M195.7453 195.1645
L195.8167 195.2359
" />
<path d="M195.8167 195.2359
L195.8881 195.1645
" />
<path d="M195.8881 195.1645
L195.8167 195.0931
" />
<path d="M195.8167 195.0931
L195.8167 195.2359
" />
<path d="M197.1739 196.5217
L197.0310 196.5931
" />
<path d="M197.0310 196.5931
L196.7453 196.5931
" />
<path d="M196.7453 196.5931
L196.6024 196.5217
" />
<path d="M196.6024 196.5217
L196.5310 196.4502
" />
<path d="M196.5310 196.4502
L196.4596 196.3074
" />
<path d="M196.4596 196.3074
L196.4596 195.8788
" />
<path d="M196.4596 195.8788
L196.5310 195.7359
" />
<path d="M196.5310 195.7359
L196.6024 195.6645
" />
<path d="M196.6024 195.6645
L196.7453 195.5931
" />
<path d="M196.7453 195.5931
L197.0310 195.5931
" />
<path d="M197.0310 195.5931
L197.1739 195.6645
" />
<path d="M198.4596 196.5931
L198.4596 195.8074
" />
<path d="M198.4596 195.8074
L198.3881 195.6645
" />
<path d="M198.3881 195.6645
L198.2453 195.5931
" />
<path d="M198.2453 195.5931
L197.9596 195.5931
" />
<path d="M197.9596 195.5931
L197.8167 195.6645
" />
<path d="M198.4596 196.5217
L198.3167 196.5931
" />
<path d="M198.3167 196.5931
L197.9596 196.5931
" />
<path d="M197.9596 196.5931
L197.8167 196.5217
" />
<path d="M197.8167 196.5217
L197.7453 196.3788
" />
<path d="M197.7453 196.3788
L197.7453 196.2359
" />
<path d="M197.7453 196.2359
L197.8167 196.0931
" />
<path d="M197.8167 196.0931
L197.9596 196.0217
" />
<path d="M197.9596 196.0217
L198.3167 196.0217
" />
<path d="M198.3167 196.0217
L198.4596 195.9502
" />
<path d="M199.8167 196.5931
L199.8167 195.0931
" />
<path d="M199.8167 196.5217
L199.6738 196.5931
" />
<path d="M199.6738 196.5931
L199.3881 196.5931
" />
<path d="M199.3881 196.5931
L199.2452 196.5217
" />
<path d="M199.2452 196.5217
L199.1738 196.4502
" />
<path d="M199.1738 196.4502
L199.1024 196.3074
" />
<path d="M199.1024 196.3074
L199.1024 195.8788
" />
<path d="M199.1024 195.8788
L199.1738 195.7359
" />
<path d="M199.1738 195.7359
L199.2452 195.6645
" />
<path d="M199.2452 195.6645
L199.3881 195.5931
" />
<path d="M199.3881 195.5931
L199.6738 195.5931
" />
<path d="M199.6738 195.5931
L199.8167 195.6645
" />
<path d="M200.5309 196.0217
L201.6738 196.0217
" />
<path d="M203.0309 196.5217
L202.8880 196.5931
" />
<path d="M202.8880 196.5931
L202.6023 196.5931
" />
<path d="M202.6023 196.5931
L202.4594 196.5217
" />
<path d="M202.4594 196.5217
L202.3880 196.4502
" />
<path d="M202.3880 196.4502
L202.3166 196.3074
" />
<path d="M202.3166 196.3074
L202.3166 195.8788
" />
<path d="M202.3166 195.8788
L202.3880 195.7359
" />
<path d="M202.3880 195.7359
L202.4594 195.6645
" />
<path d="M202.4594 195.6645
L202.6023 195.5931
" />
<path d="M202.6023 195.5931
L202.8880 195.5931
" />
<path d="M202.8880 195.5931
L203.0309 195.6645
" />
<path d="M203.8880 196.5931
L203.7451 196.5217
" />
<path d="M203.7451 196.5217
L203.6737 196.3788
" />
<path d="M203.6737 196.3788
L203.6737 195.0931
" />
<path d="M204.4594 196.5931
L204.4594 195.5931
" />
<path d="M204.4594 195.0931
L204.3880 195.1645
" />
<path d="M204.3880 195.1645
L204.4594 195.2359
" />
<path d="M204.4594 195.2359
L204.5308 195.1645
" />
<path d="M204.5308 195.1645
L204.4594 195.0931
" />
<path d="M204.4594 195.0931
L204.4594 195.2359
" />
<path d="M206.1737 195.0931
L207.1737 195.0931
" />
<path d="M207.1737 195.0931
L206.5309 196.5931
" />
<path d="M207.7452 196.4502
L207.8166 196.5217
" />
<path d="M207.8166 196.5217
L207.7452 196.5931
" />
<path d="M207.7452 196.5931
L207.6738 196.5217
" />
<path d="M207.6738 196.5217
L207.7452 196.4502
" />
<path d="M207.7452 196.4502
L207.7452 196.5931
" />
<path d="M208.7452 195.0931
L208.8881 195.0931
" />
<path d="M208.8881 195.0931
L209.0309 195.1645
" />
<path d="M209.0309 195.1645
L209.1024 195.2359
" />
<path d="M209.1024 195.2359
L209.1738 195.3788
" />
<path d="M209.1738 195.3788
L209.2452 195.6645
" />
<path d="M209.2452 195.6645
L209.2452 196.0217
" />
<path d="M209.2452 196.0217
L209.1738 196.3074
" />
<path d="M209.1738 196.3074
L209.1024 196.4502
" />
<path d="M209.1024 196.4502
L209.0309 196.5217
" />
<path d="M209.0309 196.5217
L208.8881 196.5931
" />
<path d="M208.8881 196.5931
L208.7452 196.5931
" />
<path d="M208.7452 196.5931
L208.6024 196.5217
" />
<path d="M208.6024 196.5217
L208.5309 196.4502
" />
<path d="M208.5309 196.4502
L208.4595 196.3074
" />
<path d="M208.4595 196.3074
L208.3881 196.0217
" />
<path d="M208.3881 196.0217
L208.3881 195.6645
" />
<path d="M208.3881 195.6645
L208.4595 195.3788
" />
<path d="M208.4595 195.3788
L208.5309 195.2359
" />
<path d="M208.5309 195.2359
L208.6024 195.1645
" />
<path d="M208.6024 195.1645
L208.7452 195.0931
" />
<path d="M209.8881 196.4502
L209.9595 196.5217
" />
<path d="M209.9595 196.5217
L209.8881 196.5931
" />
<path d="M209.8881 196.5931
L209.8167 196.5217
" />
<path d="M209.8167 196.5217
L209.8881 196.4502
" />
<path d="M209.8881 196.4502
L209.8881 196.5931
" />
<path d="M211.3881 196.5931
L210.5310 196.5931
" />
<path d="M210.9595 196.5931
L210.9595 195.0931
" />
<path d="M210.9595 195.0931
L210.8167 195.3074
" />
<path d="M210.8167 195.3074
L210.6738 195.4502
" />
<path d="M210.6738 195.4502
L210.5310 195.5217
" />
<path d="M212.8167 196.5931
L211.9596 196.5931
" />
<path d="M212.3881 196.5931
L212.3881 195.0931
" />
<path d="M212.3881 195.0931
L212.2453 195.3074
" />
<path d="M212.2453 195.3074
L212.1024 195.4502
" />
<path d="M212.1024 195.4502
L211.9596 195.5217
" />
<path d="M213.4596 196.0217
L214.6025 196.0217
" />
<path d="M214.0310 196.5931
L214.0310 195.4502
" />
<path d="M215.9596 196.5931
L215.9596 195.0931
" />
<path d="M215.9596 196.5217
L215.8167 196.5931
" />
<path d="M215.8167 196.5931
L215.5310 196.5931
" />
<path d="M215.5310 196.5931
L215.3881 196.5217
" />
<path d="M215.3881 196.5217
L215.3167 196.4502
" />
<path d="M215.3167 196.4502
L215.2453 196.3074
" />
<path d="M215.2453 196.3074
L215.2453 195.8788
" />
<path d="M215.2453 195.8788
L215.3167 195.7359
" />
<path d="M215.3167 195.7359
L215.3881 195.6645
" />
<path d="M215.3881 195.6645
L215.5310 195.5931
" />
<path d="M215.5310 195.5931
L215.8167 195.5931
" />
<path d="M215.8167 195.5931
L215.9596 195.6645
" />
<path d="M216.4595 195.5931
L217.0309 195.5931
" />
<path d="M216.6738 196.5931
L216.6738 195.3074
" />
<path d="M216.6738 195.3074
L216.7452 195.1645
" />
<path d="M216.7452 195.1645
L216.8881 195.0931
" />
<path d="M216.8881 195.0931
L217.0309 195.0931
" />
<path d="M217.4595 196.5217
L217.6023 196.5931
" />
<path d="M217.6023 196.5931
L217.8880 196.5931
" />
<path d="M217.8880 196.5931
L218.0309 196.5217
" />
<path d="M218.0309 196.5217
L218.1023 196.3788
" />
<path d="M218.1023 196.3788
L218.1023 196.3074
" />
<path d="M218.1023 196.3074
L218.0309 196.1645
" />
<path d="M218.0309 196.1645
L217.8880 196.0931
" />
<path d="M217.8880 196.0931
L217.6738 196.0931
" />
<path d="M217.6738 196.0931
L217.5309 196.0217
" />
<path d="M217.5309 196.0217
L217.4595 195.8788
" />
<path d="M217.4595 195.8788
L217.4595 195.8074
" />
<path d="M217.4595 195.8074
L217.5309 195.6645
" />
<path d="M217.5309 195.6645
L217.6738 195.5931
" />
<path d="M217.6738 195.5931
L217.8880 195.5931
" />
<path d="M217.8880 195.5931
L218.0309 195.6645
" />
<path d="M219.3881 195.5931
L219.3881 196.8074
" />
<path d="M219.3881 196.8074
L219.3166 196.9502
" />
<path d="M219.3166 196.9502
L219.2452 197.0217
" />
<path d="M219.2452 197.0217
L219.1023 197.0931
" />
<path d="M219.1023 197.0931
L218.8881 197.0931
" />
<path d="M218.8881 197.0931
L218.7452 197.0217
" />
<path d="M219.3881 196.5217
L219.2452 196.5931
" />
<path d="M219.2452 196.5931
L218.9595 196.5931
" />
<path d="M218.9595 196.5931
L218.8166 196.5217
" />
<path d="M218.8166 196.5217
L218.7452 196.4502
" />
<path d="M218.7452 196.4502
L218.6738 196.3074
" />
<path d="M218.6738 196.3074
L218.6738 195.8788
" />
<path d="M218.6738 195.8788
L218.7452 195.7359
" />
<path d="M218.7452 195.7359
L218.8166 195.6645
" />
<path d="M218.8166 195.6645
L218.9595 195.5931
" />
<path d="M218.9595 195.5931
L219.2452 195.5931
" />
<path d="M219.2452 195.5931
L219.3881 195.6645
" />
<path d="M220.1023 196.0217
L221.2452 196.0217
" />
<path d="M222.7451 196.5931
L221.8880 196.5931
" />
<path d="M222.3165 196.5931
L222.3165 195.0931
" />
<path d="M222.3165 195.0931
L222.1737 195.3074
" />
<path d="M222.1737 195.3074
L222.0308 195.4502
" />
<path d="M222.0308 195.4502
L221.8880 195.5217
" />
<path d="M223.3880 196.5931
L223.3880 195.0931
" />
<path d="M223.3880 195.6645
L223.5309 195.5931
" />
<path d="M223.5309 195.5931
L223.8166 195.5931
" />
<path d="M223.8166 195.5931
L223.9594 195.6645
" />
<path d="M223.9594 195.6645
L224.0309 195.7359
" />
<path d="M224.0309 195.7359
L224.1023 195.8788
" />
<path d="M224.1023 195.8788
L224.1023 196.3074
" />
<path d="M224.1023 196.3074
L224.0309 196.4502
" />
<path d="M224.0309 196.4502
L223.9594 196.5217
" />
<path d="M223.9594 196.5217
L223.8166 196.5931
" />
<path d="M223.8166 196.5931
L223.5309 196.5931
" />
<path d="M223.5309 196.5931
L223.3880 196.5217
" />
<path d="M225.3880 195.5931
L225.3880 196.5931
" />
<path d="M224.7451 195.5931
L224.7451 196.3788
" />
<path d="M224.7451 196.3788
L224.8165 196.5217
" />
<path d="M224.8165 196.5217
L224.9594 196.5931
" />
<path d="M224.9594 196.5931
L225.1737 196.5931
" />
<path d="M225.1737 196.5931
L225.3165 196.5217
" />
<path d="M225.3165 196.5217
L225.3880 196.4502
" />
<path d="M226.1022 196.5931
L226.1022 195.5931
" />
<path d="M226.1022 195.0931
L226.0308 195.1645
" />
<path d="M226.0308 195.1645
L226.1022 195.2359
" />
<path d="M226.1022 195.2359
L226.1736 195.1645
" />
<path d="M226.1736 195.1645
L226.1022 195.0931
" />
<path d="M226.1022 195.0931
L226.1022 195.2359
" />
<path d="M227.0308 196.5931
L226.8879 196.5217
" />
<path d="M226.8879 196.5217
L226.8165 196.3788
" />
<path d="M226.8165 196.3788
L226.8165 195.0931
" />
<path d="M228.2451 196.5931
L228.2451 195.0931
" />
<path d="M228.2451 196.5217
L228.1022 196.5931
" />
<path d="M228.1022 196.5931
L227.8165 196.5931
" />
<path d="M227.8165 196.5931
L227.6736 196.5217
" />
<path d="M227.6736 196.5217
L227.6022 196.4502
" />
<path d="M227.6022 196.4502
L227.5308 196.3074
" />
<path d="M227.5308 196.3074
L227.5308 195.8788
" />
<path d="M227.5308 195.8788
L227.6022 195.7359
" />
<path d="M227.6022 195.7359
L227.6736 195.6645
" />
<path d="M227.6736 195.6645
L227.8165 195.5931
" />
<path d="M227.8165 195.5931
L228.1022 195.5931
" />
<path d="M228.1022 195.5931
L228.2451 195.6645
" />
<path d="M229.6022 195.5931
L229.6022 196.5931
" />
<path d="M229.2450 195.0217
L228.8879 196.0931
" />
<path d="M228.8879 196.0931
L229.8164 196.0931
" />
</g><path d="M177.0022 191.5072
L285.0022 191.5072
" />
</g>
<g style="fill:#840000; fill-opacity:0.0; 
stroke:#840000; stroke-width:0.3000; stroke-opacity:1; 
stroke-linecap:round; stroke-linejoin:round;">
<text x="263.0022" y="193.8572"
textLength="6.3858" font-size="2.0000" lengthAdjust="spacingAndGlyphs"
text-anchor="start" opacity="0">Rev: </text>
<g class="stroked-text"><desc>Rev: </desc>
<path d="M264.4137 193.7855
L263.9137 193.0712
" />
<path d="M263.5566 193.7855
L263.5566 192.2855
" />
<path d="M263.5566 192.2855
L264.1280 192.2855
" />
<path d="M264.1280 192.2855
L264.2709 192.3569
" />
<path d="M264.2709 192.3569
L264.3423 192.4283
" />
<path d="M264.3423 192.4283
L264.4137 192.5712
" />
<path d="M264.4137 192.5712
L264.4137 192.7855
" />
<path d="M264.4137 192.7855
L264.3423 192.9283
" />
<path d="M264.3423 192.9283
L264.2709 192.9998
" />
<path d="M264.2709 192.9998
L264.1280 193.0712
" />
<path d="M264.1280 193.0712
L263.5566 193.0712
" />
<path d="M265.6280 193.7141
L265.4852 193.7855
" />
<path d="M265.4852 193.7855
L265.1995 193.7855
" />
<path d="M265.1995 193.7855
L265.0566 193.7141
" />
<path d="M265.0566 193.7141
L264.9852 193.5712
" />
<path d="M264.9852 193.5712
L264.9852 192.9998
" />
<path d="M264.9852 192.9998
L265.0566 192.8569
" />
<path d="M265.0566 192.8569
L265.1995 192.7855
" />
<path d="M265.1995 192.7855
L265.4852 192.7855
" />
<path d="M265.4852 192.7855
L265.6280 192.8569
" />
<path d="M265.6280 192.8569
L265.6995 192.9998
" />
<path d="M265.6995 192.9998
L265.6995 193.1426
" />
<path d="M265.6995 193.1426
L264.9852 193.2855
" />
<path d="M266.1994 192.7855
L266.5566 193.7855
" />
<path d="M266.5566 193.7855
L266.9137 192.7855
" />
<path d="M267.4852 193.6426
L267.5566 193.7141
" />
<path d="M267.5566 193.7141
L267.4852 193.7855
" />
<path d="M267.4852 193.7855
L267.4138 193.7141
" />
<path d="M267.4138 193.7141
L267.4852 193.6426
" />
<path d="M267.4852 193.6426
L267.4852 193.7855
" />
<path d="M267.4852 192.8569
L267.5566 192.9283
" />
<path d="M267.5566 192.9283
L267.4852 192.9998
" />
<path d="M267.4852 192.9998
L267.4138 192.9283
" />
<path d="M267.4138 192.9283
L267.4852 192.8569
" />
<path d="M267.4852 192.8569
L267.4852 192.9998
" />
</g></g>
<g style="fill:#840000; fill-opacity:0.0; 
stroke:#840000; stroke-width:0.1524; stroke-opacity:1; 
stroke-linecap:round; stroke-linejoin:round;">
<text x="178.0022" y="193.8572"
textLength="9.3716" font-size="2.0000" lengthAdjust="spacingAndGlyphs"
text-anchor="start" opacity="0">Size: A4</text>
<g class="stroked-text"><desc>Size: A4</desc>
<path d="M178.3881 193.7217
L178.6024 193.7931
" />
<path d="M178.6024 193.7931
L178.9595 193.7931
" />
<path d="M178.9595 193.7931
L179.1024 193.7217
" />
<path d="M179.1024 193.7217
L179.1738 193.6502
" />
<path d="M179.1738 193.6502
L179.2452 193.5074
" />
<path d="M179.2452 193.5074
L179.2452 193.3645
" />
<path d="M179.2452 193.3645
L179.1738 193.2217
" />
<path d="M179.1738 193.2217
L179.1024 193.1502
" />
<path d="M179.1024 193.1502
L178.9595 193.0788
" />
<path d="M178.9595 193.0788
L178.6738 193.0074
" />
<path d="M178.6738 193.0074
L178.5309 192.9359
" />
<path d="M178.5309 192.9359
L178.4595 192.8645
" />
<path d="M178.4595 192.8645
L178.3881 192.7217
" />
<path d="M178.3881 192.7217
L178.3881 192.5788
" />
<path d="M178.3881 192.5788
L178.4595 192.4359
" />
<path d="M178.4595 192.4359
L178.5309 192.3645
" />
<path d="M178.5309 192.3645
L178.6738 192.2931
" />
<path d="M178.6738 192.2931
L179.0309 192.2931
" />
<path d="M179.0309 192.2931
L179.2452 192.3645
" />
<path d="M179.8881 193.7931
L179.8881 192.7931
" />
<path d="M179.8881 192.2931
L179.8167 192.3645
" />
<path d="M179.8167 192.3645
L179.8881 192.4359
" />
<path d="M179.8881 192.4359
L179.9595 192.3645
" />
<path d="M179.9595 192.3645
L179.8881 192.2931
" />
<path d="M179.8881 192.2931
L179.8881 192.4359
" />
<path d="M180.4595 192.7931
L181.2453 192.7931
" />
<path d="M181.2453 192.7931
L180.4595 193.7931
" />
<path d="M180.4595 193.7931
L181.2453 193.7931
" />
<path d="M182.3881 193.7217
L182.2453 193.7931
" />
<path d="M182.2453 193.7931
L181.9596 193.7931
" />
<path d="M181.9596 193.7931
L181.8167 193.7217
" />
<path d="M181.8167 193.7217
L181.7453 193.5788
" />
<path d="M181.7453 193.5788
L181.7453 193.0074
" />
<path d="M181.7453 193.0074
L181.8167 192.8645
" />
<path d="M181.8167 192.8645
L181.9596 192.7931
" />
<path d="M181.9596 192.7931
L182.2453 192.7931
" />
<path d="M182.2453 192.7931
L182.3881 192.8645
" />
<path d="M182.3881 192.8645
L182.4596 193.0074
" />
<path d="M182.4596 193.0074
L182.4596 193.1502
" />
<path d="M182.4596 193.1502
L181.7453 193.2931
" />
<path d="M183.1024 193.6502
L183.1738 193.7217
" />
<path d="M183.1738 193.7217
L183.1024 193.7931
" />
<path d="M183.1024 193.7931
L183.0310 193.7217
" />
<path d="M183.0310 193.7217
L183.1024 193.6502
" />
<path d="M183.1024 193.6502
L183.1024 193.7931
" />
<path d="M183.1024 192.8645
L183.1738 192.9359
" />
<path d="M183.1738 192.9359
L183.1024 193.0074
" />
<path d="M183.1024 193.0074
L183.0310 192.9359
" />
<path d="M183.0310 192.9359
L183.1024 192.8645
" />
<path d="M183.1024 192.8645
L183.1024 193.0074
" />
<path d="M184.8882 193.3645
L185.6025 193.3645
" />
<path d="M184.7453 193.7931
L185.2453 192.2931
" />
<path d="M185.2453 192.2931
L185.7453 193.7931
" />
<path d="M186.8882 192.7931
L186.8882 193.7931
" />
<path d="M186.5310 192.2217
L186.1739 193.2931
" />
<path d="M186.1739 193.2931
L187.1024 193.2931
" />
</g><text x="263.0022" y="196.6572"
textLength="8.5144" font-size="2.0000" lengthAdjust="spacingAndGlyphs"
text-anchor="start" opacity="0">Id: 1/1</text>
<g class="stroked-text"><desc>Id: 1/1</desc>
<path d="M263.4595 196.5931
L263.4595 195.0931
" />
<path d="M264.8167 196.5931
L264.8167 195.0931
" />
<path d="M264.8167 196.5217
L264.6738 196.5931
" />
<path d="M264.6738 196.5931
L264.3881 196.5931
" />
<path d="M264.3881 196.5931
L264.2452 196.5217
" />
<path d="M264.2452 196.5217
L264.1738 196.4502
" />
<path d="M264.1738 196.4502
L264.1024 196.3074
" />
<path d="M264.1024 196.3074
L264.1024 195.8788
" />
<path d="M264.1024 195.8788
L264.1738 195.7359
" />
<path d="M264.1738 195.7359
L264.2452 195.6645
" />
<path d="M264.2452 195.6645
L264.3881 195.5931
" />
<path d="M264.3881 195.5931
L264.6738 195.5931
" />
<path d="M264.6738 195.5931
L264.8167 195.6645
" />
<path d="M265.5309 196.4502
L265.6023 196.5217
" />
<path d="M265.6023 196.5217
L265.5309 196.5931
" />
<path d="M265.5309 196.5931
L265.4595 196.5217
" />
<path d="M265.4595 196.5217
L265.5309 196.4502
" />
<path d="M265.5309 196.4502
L265.5309 196.5931
" />
<path d="M265.5309 195.6645
L265.6023 195.7359
" />
<path d="M265.6023 195.7359
L265.5309 195.8074
" />
<path d="M265.5309 195.8074
L265.4595 195.7359
" />
<path d="M265.4595 195.7359
L265.5309 195.6645
" />
<path d="M265.5309 195.6645
L265.5309 195.8074
" />
<path d="M268.1738 196.5931
L267.3167 196.5931
" />
<path d="M267.7452 196.5931
L267.7452 195.0931
" />
<path d="M267.7452 195.0931
L267.6024 195.3074
" />
<path d="M267.6024 195.3074
L267.4595 195.4502
" />
<path d="M267.4595 195.4502
L267.3167 195.5217
" />
<path d="M269.8881 195.0217
L268.6024 196.9502
" />
<path d="M271.1738 196.5931
L270.3167 196.5931
" />
<path d="M270.7452 196.5931
L270.7452 195.0931
" />
<path d="M270.7452 195.0931
L270.6024 195.3074
" />
<path d="M270.6024 195.3074
L270.4595 195.4502
" />
<path d="M270.4595 195.4502
L270.3167 195.5217
" />
</g><path d="M177.0022 187.5072
L285.0022 187.5072
" />
</g>
<g style="fill:#840000; fill-opacity:0.0; 
stroke:#840000; stroke-width:0.4000; stroke-opacity:1; 
stroke-linecap:round; stroke-linejoin:round;">
<text x="178.0022" y="190.3072"
textLength="9.6572" font-size="2.6666" lengthAdjust="spacingAndGlyphs"
text-anchor="start" opacity="0">Title: </text>
<g class="stroked-text"><desc>Title: </desc>
<path d="M178.6938 188.2116
L179.8367 188.2116
" />
<path d="M179.0153 190.2116
L179.2653 188.2116
" />
<path d="M180.2533 190.2116
L180.4200 188.8783
" />
<path d="M180.5033 188.2116
L180.3962 188.3068
" />
<path d="M180.3962 188.3068
L180.4795 188.4021
" />
<path d="M180.4795 188.4021
L180.5867 188.3068
" />
<path d="M180.5867 188.3068
L180.5033 188.2116
" />
<path d="M180.5033 188.2116
L180.4795 188.4021
" />
<path d="M181.0867 188.8783
L181.8486 188.8783
" />
<path d="M181.4557 188.2116
L181.2415 189.9259
" />
<path d="M181.2415 189.9259
L181.3129 190.1164
" />
<path d="M181.3129 190.1164
L181.4915 190.2116
" />
<path d="M181.4915 190.2116
L181.6819 190.2116
" />
<path d="M182.6344 190.2116
L182.4558 190.1164
" />
<path d="M182.4558 190.1164
L182.3844 189.9259
" />
<path d="M182.3844 189.9259
L182.5986 188.2116
" />
<path d="M184.1700 190.1164
L183.9677 190.2116
" />
<path d="M183.9677 190.2116
L183.5867 190.2116
" />
<path d="M183.5867 190.2116
L183.4081 190.1164
" />
<path d="M183.4081 190.1164
L183.3367 189.9259
" />
<path d="M183.3367 189.9259
L183.4320 189.1640
" />
<path d="M183.4320 189.1640
L183.5510 188.9735
" />
<path d="M183.5510 188.9735
L183.7534 188.8783
" />
<path d="M183.7534 188.8783
L184.1343 188.8783
" />
<path d="M184.1343 188.8783
L184.3129 188.9735
" />
<path d="M184.3129 188.9735
L184.3843 189.1640
" />
<path d="M184.3843 189.1640
L184.3605 189.3544
" />
<path d="M184.3605 189.3544
L183.3843 189.5449
" />
<path d="M185.1343 190.0211
L185.2177 190.1164
" />
<path d="M185.2177 190.1164
L185.1105 190.2116
" />
<path d="M185.1105 190.2116
L185.0272 190.1164
" />
<path d="M185.0272 190.1164
L185.1343 190.0211
" />
<path d="M185.1343 190.0211
L185.1105 190.2116
" />
<path d="M185.2653 188.9735
L185.3486 189.0687
" />
<path d="M185.3486 189.0687
L185.2415 189.1640
" />
<path d="M185.2415 189.1640
L185.1582 189.0687
" />
<path d="M185.1582 189.0687
L185.2653 188.9735
" />
<path d="M185.2653 188.9735
L185.2415 189.1640
" />
</g></g>
<g style="fill:#840000; fill-opacity:0.0; 
stroke:#840000; stroke-width:0.1524; stroke-opacity:1; 
stroke-linecap:round; stroke-linejoin:round;">
<text x="178.0022" y="186.4572"
textLength="46.4426" font-size="2.0000" lengthAdjust="spacingAndGlyphs"
text-anchor="start" opacity="0">File: bucket_buckets.kicad_sch.kicad_sch</text>
<g class="stroked-text"><desc>File: bucket_buckets.kicad_sch.kicad_sch</desc>
<path d="M178.9595 185.6074
L178.4595 185.6074
" />
<path d="M178.4595 186.3931
L178.4595 184.8931
" />
<path d="M178.4595 184.8931
L179.1738 184.8931
" />
<path d="M179.7452 186.3931
L179.7452 185.3931
" />
<path d="M179.7452 184.8931
L179.6738 184.9645
" />
<path d="M179.6738 184.9645
L179.7452 185.0359
" />
<path d="M179.7452 185.0359
L179.8166 184.9645
" />
<path d="M179.8166 184.9645
L179.7452 184.8931
" />
<path d="M179.7452 184.8931
L179.7452 185.0359
" />
<path d="M180.6738 186.3931
L180.5309 186.3217
" />
<path d="M180.5309 186.3217
L180.4595 186.1788
" />
<path d="M180.4595 186.1788
L180.4595 184.8931
" />
<path d="M181.8166 186.3217
L181.6738 186.3931
" />
<path d="M181.6738 186.3931
L181.3881 186.3931
" />
<path d="M181.3881 186.3931
L181.2452 186.3217
" />
<path d="M181.2452 186.3217
L181.1738 186.1788
" />
<path d="M181.1738 186.1788
L181.1738 185.6074
" />
<path d="M181.1738 185.6074
L181.2452 185.4645
" />
<path d="M181.2452 185.4645
L181.3881 185.3931
" />
<path d="M181.3881 185.3931
L181.6738 185.3931
" />
<path d="M181.6738 185.3931
L181.8166 185.4645
" />
<path d="M181.8166 185.4645
L181.8881 185.6074
" />
<path d="M181.8881 185.6074
L181.8881 185.7502
" />
<path d="M181.8881 185.7502
L181.1738 185.8931
" />
<path d="M182.5309 186.2502
L182.6023 186.3217
" />
<path d="M182.6023 186.3217
L182.5309 186.3931
" />
<path d="M182.5309 186.3931
L182.4595 186.3217
" />
<path d="M182.4595 186.3217
L182.5309 186.2502
" />
<path d="M182.5309 186.2502
L182.5309 186.3931
" />
<path d="M182.5309 185.4645
L182.6023 185.5359
" />
<path d="M182.6023 185.5359
L182.5309 185.6074
" />
<path d="M182.5309 185.6074
L182.4595 185.5359
" />
<path d="M182.4595 185.5359
L182.5309 185.4645
" />
<path d="M182.5309 185.4645
L182.5309 185.6074
" />
<path d="M184.3881 186.3931
L184.3881 184.8931
" />
<path d="M184.3881 185.4645
L184.5310 185.3931
" />
<path d="M184.5310 185.3931
L184.8167 185.3931
" />
<path d="M184.8167 185.3931
L184.9595 185.4645
" />
<path d="M184.9595 185.4645
L185.0310 185.5359
" />
<path d="M185.0310 185.5359
L185.1024 185.6788
" />
<path d="M185.1024 185.6788
L185.1024 186.1074
" />
<path d="M185.1024 186.1074
L185.0310 186.2502
" />
<path d="M185.0310 186.2502
L184.9595 186.3217
" />
<path d="M184.9595 186.3217
L184.8167 186.3931
" />
<path d="M184.8167 186.3931
L184.5310 186.3931
" />
<path d="M184.5310 186.3931
L184.3881 186.3217
" />
<path d="M186.3881 185.3931
L186.3881 186.3931
" />
<path d="M185.7452 185.3931
L185.7452 186.1788
" />
<path d="M185.7452 186.1788
L185.8166 186.3217
" />
<path d="M185.8166 186.3217
L185.9595 186.3931
" />
<path d="M185.9595 186.3931
L186.1738 186.3931
" />
<path d="M186.1738 186.3931
L186.3166 186.3217
" />
<path d="M186.3166 186.3217
L186.3881 186.2502
" />
<path d="M187.7452 186.3217
L187.6023 186.3931
" />
<path d="M187.6023 186.3931
L187.3166 186.3931
" />
<path d="M187.3166 186.3931
L187.1737 186.3217
" />
<path d="M187.1737 186.3217
L187.1023 186.2502
" />
<path d="M187.1023 186.2502
L187.0309 186.1074
" />
<path d="M187.0309 186.1074
L187.0309 185.6788
" />
<path d="M187.0309 185.6788
L187.1023 185.5359
" />
<path d="M187.1023 185.5359
L187.1737 185.4645
" />
<path d="M187.1737 185.4645
L187.3166 185.3931
" />
<path d="M187.3166 185.3931
L187.6023 185.3931
" />
<path d="M187.6023 185.3931
L187.7452 185.4645
" />
<path d="M188.3880 186.3931
L188.3880 184.8931
" />
<path d="M188.5309 185.8217
L188.9594 186.3931
" />
<path d="M188.9594 185.3931
L188.3880 185.9645
" />
<path d="M190.1737 186.3217
L190.0309 186.3931
" />
<path d="M190.0309 186.3931
L189.7452 186.3931
" />
<path d="M189.7452 186.3931
L189.6023 186.3217
" />
<path d="M189.6023 186.3217
L189.5309 186.1788
" />
<path d="M189.5309 186.1788
L189.5309 185.6074
" />
<path d="M189.5309 185.6074
L189.6023 185.4645
" />
<path d="M189.6023 185.4645
L189.7452 185.3931
" />
<path d="M189.7452 185.3931
L190.0309 185.3931
" />
<path d="M190.0309 185.3931
L190.1737 185.4645
" />
<path d="M190.1737 185.4645
L190.2452 185.6074
" />
<path d="M190.2452 185.6074
L190.2452 185.7502
" />
<path d="M190.2452 185.7502
L189.5309 185.8931
" />
<path d="M190.6737 185.3931
L191.2451 185.3931
" />
<path d="M190.8880 184.8931
L190.8880 186.1788
" />
<path d="M190.8880 186.1788
L190.9594 186.3217
" />
<path d="M190.9594 186.3217
L191.1023 186.3931
" />
<path d="M191.1023 186.3931
L191.2451 186.3931
" />
<path d="M191.3880 186.5359
L192.5308 186.5359
" />
<path d="M192.8880 186.3931
L192.8880 184.8931
" />
<path d="M192.8880 185.4645
L193.0309 185.3931
" />
<path d="M193.0309 185.3931
L193.3166 185.3931
" />
<path d="M193.3166 185.3931
L193.4594 185.4645
" />
<path d="M193.4594 185.4645
L193.5309 185.5359
" />
<path d="M193.5309 185.5359
L193.6023 185.6788
" />
<path d="M193.6023 185.6788
L193.6023 186.1074
" />
<path d="M193.6023 186.1074
L193.5309 186.2502
" />
<path d="M193.5309 186.2502
L193.4594 186.3217
" />
<path d="M193.4594 186.3217
L193.3166 186.3931
" />
<path d="M193.3166 186.3931
L193.0309 186.3931
" />
<path d="M193.0309 186.3931
L192.8880 186.3217
" />
<path d="M194.8880 185.3931
L194.8880 186.3931
" />
<path d="M194.2451 185.3931
L194.2451 186.1788
" />
<path d="M194.2451 186.1788
L194.3165 186.3217
" />
<path d="M194.3165 186.3217
L194.4594 186.3931
" />
<path d="M194.4594 186.3931
L194.6737 186.3931
" />
<path d="M194.6737 186.3931
L194.8165 186.3217
" />
<path d="M194.8165 186.3217
L194.8880 186.2502
" />
<path d="M196.2451 186.3217
L196.1022 186.3931
" />
<path d="M196.1022 186.3931
L195.8165 186.3931
" />
<path d="M195.8165 186.3931
L195.6736 186.3217
" />
<path d="M195.6736 186.3217
L195.6022 186.2502
" />
<path d="M195.6022 186.2502
L195.5308 186.1074
" />
<path d="M195.5308 186.1074
L195.5308 185.6788
" />
<path d="M195.5308 185.6788
L195.6022 185.5359
" />
<path d="M195.6022 185.5359
L195.6736 185.4645
" />
<path d="M195.6736 185.4645
L195.8165 185.3931
" />
<path d="M195.8165 185.3931
L196.1022 185.3931
" />
<path d="M196.1022 185.3931
L196.2451 185.4645
" />
<path d="M196.8879 186.3931
L196.8879 184.8931
" />
<path d="M197.0308 185.8217
L197.4593 186.3931
" />
<path d="M197.4593 185.3931
L196.8879 185.9645
" />
<path d="M198.6736 186.3217
L198.5308 186.3931
" />
<path d="M198.5308 186.3931
L198.2451 186.3931
" />
<path d="M198.2451 186.3931
L198.1022 186.3217
" />
<path d="M198.1022 186.3217
L198.0308 186.1788
" />
<path d="M198.0308 186.1788
L198.0308 185.6074
" />
<path d="M198.0308 185.6074
L198.1022 185.4645
" />
<path d="M198.1022 185.4645
L198.2451 185.3931
" />
<path d="M198.2451 185.3931
L198.5308 185.3931
" />
<path d="M198.5308 185.3931
L198.6736 185.4645
" />
<path d="M198.6736 185.4645
L198.7451 185.6074
" />
<path d="M198.7451 185.6074
L198.7451 185.7502
" />
<path d="M198.7451 185.7502
L198.0308 185.8931
" />
<path d="M199.1736 185.3931
L199.7450 185.3931
" />
<path d="M199.3879 184.8931
L199.3879 186.1788
" />
<path d="M199.3879 186.1788
L199.4593 186.3217
" />
<path d="M199.4593 186.3217
L199.6022 186.3931
" />
<path d="M199.6022 186.3931
L199.7450 186.3931
" />
<path d="M200.1736 186.3217
L200.3164 186.3931
" />
<path d="M200.3164 186.3931
L200.6021 186.3931
" />
<path d="M200.6021 186.3931
L200.7450 186.3217
" />
<path d="M200.7450 186.3217
L200.8164 186.1788
" />
<path d="M200.8164 186.1788
L200.8164 186.1074
" />
<path d="M200.8164 186.1074
L200.7450 185.9645
" />
<path d="M200.7450 185.9645
L200.6021 185.8931
" />
<path d="M200.6021 185.8931
L200.3879 185.8931
" />
<path d="M200.3879 185.8931
L200.2450 185.8217
" />
<path d="M200.2450 185.8217
L200.1736 185.6788
" />
<path d="M200.1736 185.6788
L200.1736 185.6074
" />
<path d="M200.1736 185.6074
L200.2450 185.4645
" />
<path d="M200.2450 185.4645
L200.3879 185.3931
" />
<path d="M200.3879 185.3931
L200.6021 185.3931
" />
<path d="M200.6021 185.3931
L200.7450 185.4645
" />
<path d="M201.4593 186.2502
L201.5307 186.3217
" />
<path d="M201.5307 186.3217
L201.4593 186.3931
" />
<path d="M201.4593 186.3931
L201.3879 186.3217
" />
<path d="M201.3879 186.3217
L201.4593 186.2502
" />
<path d="M201.4593 186.2502
L201.4593 186.3931
" />
<path d="M202.1736 186.3931
L202.1736 184.8931
" />
<path d="M202.3165 185.8217
L202.7450 186.3931
" />
<path d="M202.7450 185.3931
L202.1736 185.9645
" />
<path d="M203.3879 186.3931
L203.3879 185.3931
" />
<path d="M203.3879 184.8931
L203.3165 184.9645
" />
<path d="M203.3165 184.9645
L203.3879 185.0359
" />
<path d="M203.3879 185.0359
L203.4593 184.9645
" />
<path d="M203.4593 184.9645
L203.3879 184.8931
" />
<path d="M203.3879 184.8931
L203.3879 185.0359
" />
<path d="M204.7451 186.3217
L204.6022 186.3931
" />
<path d="M204.6022 186.3931
L204.3165 186.3931
" />
<path d="M204.3165 186.3931
L204.1736 186.3217
" />
<path d="M204.1736 186.3217
L204.1022 186.2502
" />
<path d="M204.1022 186.2502
L204.0308 186.1074
" />
<path d="M204.0308 186.1074
L204.0308 185.6788
" />
<path d="M204.0308 185.6788
L204.1022 185.5359
" />
<path d="M204.1022 185.5359
L204.1736 185.4645
" />
<path d="M204.1736 185.4645
L204.3165 185.3931
" />
<path d="M204.3165 185.3931
L204.6022 185.3931
" />
<path d="M204.6022 185.3931
L204.7451 185.4645
" />
<path d="M206.0308 186.3931
L206.0308 185.6074
" />
<path d="M206.0308 185.6074
L205.9593 185.4645
" />
<path d="M205.9593 185.4645
L205.8165 185.3931
" />
<path d="M205.8165 185.3931
L205.5308 185.3931
" />
<path d="M205.5308 185.3931
L205.3879 185.4645
" />
<path d="M206.0308 186.3217
L205.8879 186.3931
" />
<path d="M205.8879 186.3931
L205.5308 186.3931
" />
<path d="M205.5308 186.3931
L205.3879 186.3217
" />
<path d="M205.3879 186.3217
L205.3165 186.1788
" />
<path d="M205.3165 186.1788
L205.3165 186.0359
" />
<path d="M205.3165 186.0359
L205.3879 185.8931
" />
<path d="M205.3879 185.8931
L205.5308 185.8217
" />
<path d="M205.5308 185.8217
L205.8879 185.8217
" />
<path d="M205.8879 185.8217
L206.0308 185.7502
" />
<path d="M207.3879 186.3931
L207.3879 184.8931
" />
<path d="M207.3879 186.3217
L207.2450 186.3931
" />
<path d="M207.2450 186.3931
L206.9593 186.3931
" />
<path d="M206.9593 186.3931
L206.8164 186.3217
" />
<path d="M206.8164 186.3217
L206.7450 186.2502
" />
<path d="M206.7450 186.2502
L206.6736 186.1074
" />
<path d="M206.6736 186.1074
L206.6736 185.6788
" />
<path d="M206.6736 185.6788
L206.7450 185.5359
" />
<path d="M206.7450 185.5359
L206.8164 185.4645
" />
<path d="M206.8164 185.4645
L206.9593 185.3931
" />
<path d="M206.9593 185.3931
L207.2450 185.3931
" />
<path d="M207.2450 185.3931
L207.3879 185.4645
" />
<path d="M207.7450 186.5359
L208.8878 186.5359
" />
<path d="M209.1736 186.3217
L209.3164 186.3931
" />
<path d="M209.3164 186.3931
L209.6021 186.3931
" />
<path d="M209.6021 186.3931
L209.7450 186.3217
" />
<path d="M209.7450 186.3217
L209.8164 186.1788
" />
<path d="M209.8164 186.1788
L209.8164 186.1074
" />
<path d="M209.8164 186.1074
L209.7450 185.9645
" />
<path d="M209.7450 185.9645
L209.6021 185.8931
" />
<path d="M209.6021 185.8931
L209.3879 185.8931
" />
<path d="M209.3879 185.8931
L209.2450 185.8217
" />
<path d="M209.2450 185.8217
L209.1736 185.6788
" />
<path d="M209.1736 185.6788
L209.1736 185.6074
" />
<path d="M209.1736 185.6074
L209.2450 185.4645
" />
<path d="M209.2450 185.4645
L209.3879 185.3931
" />
<path d="M209.3879 185.3931
L209.6021 185.3931
" />
<path d="M209.6021 185.3931
L209.7450 185.4645
" />
<path d="M211.1022 186.3217
L210.9593 186.3931
" />
<path d="M210.9593 186.3931
L210.6736 186.3931
" />
<path d="M210.6736 186.3931
L210.5307 186.3217
" />
<path d="M210.5307 186.3217
L210.4593 186.2502
" />
<path d="M210.4593 186.2502
L210.3879 186.1074
" />
<path d="M210.3879 186.1074
L210.3879 185.6788
" />
<path d="M210.3879 185.6788
L210.4593 185.5359
" />
<path d="M210.4593 185.5359
L210.5307 185.4645
" />
<path d="M210.5307 185.4645
L210.6736 185.3931
" />
<path d="M210.6736 185.3931
L210.9593 185.3931
" />
<path d="M210.9593 185.3931
L211.1022 185.4645
" />
<path d="M211.7450 186.3931
L211.7450 184.8931
" />
<path d="M212.3879 186.3931
L212.3879 185.6074
" />
<path d="M212.3879 185.6074
L212.3164 185.4645
" />
<path d="M212.3164 185.4645
L212.1736 185.3931
" />
<path d="M212.1736 185.3931
L211.9593 185.3931
" />
<path d="M211.9593 185.3931
L211.8164 185.4645
" />
<path d="M211.8164 185.4645
L211.7450 185.5359
" />
<path d="M213.1021 186.2502
L213.1735 186.3217
" />
<path d="M213.1735 186.3217
L213.1021 186.3931
" />
<path d="M213.1021 186.3931
L213.0307 186.3217
" />
<path d="M213.0307 186.3217
L213.1021 186.2502
" />
<path d="M213.1021 186.2502
L213.1021 186.3931
" />
<path d="M213.8164 186.3931
L213.8164 184.8931
" />
<path d="M213.9593 185.8217
L214.3878 186.3931
" />
<path d="M214.3878 185.3931
L213.8164 185.9645
" />
<path d="M215.0307 186.3931
L215.0307 185.3931
" />
<path d="M215.0307 184.8931
L214.9593 184.9645
" />
<path d="M214.9593 184.9645
L215.0307 185.0359
" />
<path d="M215.0307 185.0359
L215.1021 184.9645
" />
<path d="M215.1021 184.9645
L215.0307 184.8931
" />
<path d="M215.0307 184.8931
L215.0307 185.0359
" />
<path d="M216.3879 186.3217
L216.2450 186.3931
" />
<path d="M216.2450 186.3931
L215.9593 186.3931
" />
<path d="M215.9593 186.3931
L215.8164 186.3217
" />
<path d="M215.8164 186.3217
L215.7450 186.2502
" />
<path d="M215.7450 186.2502
L215.6736 186.1074
" />
<path d="M215.6736 186.1074
L215.6736 185.6788
" />
<path d="M215.6736 185.6788
L215.7450 185.5359
" />
<path d="M215.7450 185.5359
L215.8164 185.4645
" />
<path d="M215.8164 185.4645
L215.9593 185.3931
" />
<path d="M215.9593 185.3931
L216.2450 185.3931
" />
<path d="M216.2450 185.3931
L216.3879 185.4645
" />
<path d="M217.6736 186.3931
L217.6736 185.6074
" />
<path d="M217.6736 185.6074
L217.6021 185.4645
" />
<path d="M217.6021 185.4645
L217.4593 185.3931
" />
<path d="M217.4593 185.3931
L217.1736 185.3931
" />
<path d="M217.1736 185.3931
L217.0307 185.4645
" />
<path d="M217.6736 186.3217
L217.5307 186.3931
" />
<path d="M217.5307 186.3931
L217.1736 186.3931
" />
<path d="M217.1736 186.3931
L217.0307 186.3217
" />
<path d="M217.0307 186.3217
L216.9593 186.1788
" />
<path d="M216.9593 186.1788
L216.9593 186.0359
" />
<path d="M216.9593 186.0359
L217.0307 185.8931
" />
<path d="M217.0307 185.8931
L217.1736 185.8217
" />
<path d="M217.1736 185.8217
L217.5307 185.8217
" />
<path d="M217.5307 185.8217
L217.6736 185.7502
" />
<path d="M219.0307 186.3931
L219.0307 184.8931
" />
<path d="M219.0307 186.3217
L218.8878 186.3931
" />
<path d="M218.8878 186.3931
L218.6021 186.3931
" />
<path d="M218.6021 186.3931
L218.4592 186.3217
" />
<path d="M218.4592 186.3217
L218.3878 186.2502
" />
<path d="M218.3878 186.2502
L218.3164 186.1074
" />
<path d="M218.3164 186.1074
L218.3164 185.6788
" />
<path d="M218.3164 185.6788
L218.3878 185.5359
" />
<path d="M218.3878 185.5359
L218.4592 185.4645
" />
<path d="M218.4592 185.4645
L218.6021 185.3931
" />
<path d="M218.6021 185.3931
L218.8878 185.3931
" />
<path d="M218.8878 185.3931
L219.0307 185.4645
" />
<path d="M219.3878 186.5359
L220.5306 186.5359
" />
<path d="M220.8164 186.3217
L220.9592 186.3931
" />
<path d="M220.9592 186.3931
L221.2449 186.3931
" />
<path d="M221.2449 186.3931
L221.3878 186.3217
" />
<path d="M221.3878 186.3217
L221.4592 186.1788
" />
<path d="M221.4592 186.1788
L221.4592 186.1074
" />
<path d="M221.4592 186.1074
L221.3878 185.9645
" />
<path d="M221.3878 185.9645
L221.2449 185.8931
" />
<path d="M221.2449 185.8931
L221.0307 185.8931
" />
<path d="M221.0307 185.8931
L220.8878 185.8217
" />
<path d="M220.8878 185.8217
L220.8164 185.6788
" />
<path d="M220.8164 185.6788
L220.8164 185.6074
" />
<path d="M220.8164 185.6074
L220.8878 185.4645
" />
<path d="M220.8878 185.4645
L221.0307 185.3931
" />
<path d="M221.0307 185.3931
L221.2449 185.3931
" />
<path d="M221.2449 185.3931
L221.3878 185.4645
" />
<path d="M222.7450 186.3217
L222.6021 186.3931
" />
<path d="M222.6021 186.3931
L222.3164 186.3931
" />
<path d="M222.3164 186.3931
L222.1735 186.3217
" />
<path d="M222.1735 186.3217
L222.1021 186.2502
" />
<path d="M222.1021 186.2502
L222.0307 186.1074
" />
<path d="M222.0307 186.1074
L222.0307 185.6788
" />
<path d="M222.0307 185.6788
L222.1021 185.5359
" />
<path d="M222.1021 185.5359
L222.1735 185.4645
" />
<path d="M222.1735 185.4645
L222.3164 185.3931
" />
<path d="M222.3164 185.3931
L222.6021 185.3931
" />
<path d="M222.6021 185.3931
L222.7450 185.4645
" />
<path d="M223.3878 186.3931
L223.3878 184.8931
" />
<path d="M224.0307 186.3931
L224.0307 185.6074
" />
<path d="M224.0307 185.6074
L223.9592 185.4645
" />
<path d="M223.9592 185.4645
L223.8164 185.3931
" />
<path d="M223.8164 185.3931
L223.6021 185.3931
" />
<path d="M223.6021 185.3931
L223.4592 185.4645
" />
<path d="M223.4592 185.4645
L223.3878 185.5359
" />
</g><path d="M177.0022 181.5072
L285.0022 181.5072
" />
<text x="178.0022" y="183.7572"
textLength="9.8000" font-size="2.0000" lengthAdjust="spacingAndGlyphs"
text-anchor="start" opacity="0">Sheet: /</text>
<g class="stroked-text"><desc>Sheet: /</desc>
<path d="M178.3881 183.6217
L178.6024 183.6931
" />
<path d="M178.6024 183.6931
L178.9595 183.6931
" />
<path d="M178.9595 183.6931
L179.1024 183.6217
" />
<path d="M179.1024 183.6217
L179.1738 183.5502
" />
<path d="M179.1738 183.5502
L179.2452 183.4074
" />
<path d="M179.2452 183.4074
L179.2452 183.2645
" />
<path d="M179.2452 183.2645
L179.1738 183.1217
" />
<path d="M179.1738 183.1217
L179.1024 183.0502
" />
<path d="M179.1024 183.0502
L178.9595 182.9788
" />
<path d="M178.9595 182.9788
L178.6738 182.9074
" />
<path d="M178.6738 182.9074
L178.5309 182.8359
" />
<path d="M178.5309 182.8359
L178.4595 182.7645
" />
<path d="M178.4595 182.7645
L178.3881 182.6217
" />
<path d="M178.3881 182.6217
L178.3881 182.4788
" />
<path d="M178.3881 182.4788
L178.4595 182.3359
" />
<path d="M178.4595 182.3359
L178.5309 182.2645
" />
<path d="M178.5309 182.2645
L178.6738 182.1931
" />
<path d="M178.6738 182.1931
L179.0309 182.1931
" />
<path d="M179.0309 182.1931
L179.2452 182.2645
" />
<path d="M179.8881 183.6931
L179.8881 182.1931
" />
<path d="M180.5310 183.6931
L180.5310 182.9074
" />
<path d="M180.5310 182.9074
L180.4595 182.7645
" />
<path d="M180.4595 182.7645
L180.3167 182.6931
" />
<path d="M180.3167 182.6931
L180.1024 182.6931
" />
<path d="M180.1024 182.6931
L179.9595 182.7645
" />
<path d="M179.9595 182.7645
L179.8881 182.8359
" />
<path d="M181.8166 183.6217
L181.6738 183.6931
" />
<path d="M181.6738 183.6931
L181.3881 183.6931
" />
<path d="M181.3881 183.6931
L181.2452 183.6217
" />
<path d="M181.2452 183.6217
L181.1738 183.4788
" />
<path d="M181.1738 183.4788
L181.1738 182.9074
" />
<path d="M181.1738 182.9074
L181.2452 182.7645
" />
<path d="M181.2452 182.7645
L181.3881 182.6931
" />
<path d="M181.3881 182.6931
L181.6738 182.6931
" />
<path d="M181.6738 182.6931
L181.8166 182.7645
" />
<path d="M181.8166 182.7645
L181.8881 182.9074
" />
<path d="M181.8881 182.9074
L181.8881 183.0502
" />
<path d="M181.8881 183.0502
L181.1738 183.1931
" />
<path d="M183.1023 183.6217
L182.9595 183.6931
" />
<path d="M182.9595 183.6931
L182.6738 183.6931
" />
<path d="M182.6738 183.6931
L182.5309 183.6217
" />
<path d="M182.5309 183.6217
L182.4595 183.4788
" />
<path d="M182.4595 183.4788
L182.4595 182.9074
" />
<path d="M182.4595 182.9074
L182.5309 182.7645
" />
<path d="M182.5309 182.7645
L182.6738 182.6931
" />
<path d="M182.6738 182.6931
L182.9595 182.6931
" />
<path d="M182.9595 182.6931
L183.1023 182.7645
" />
<path d="M183.1023 182.7645
L183.1738 182.9074
" />
<path d="M183.1738 182.9074
L183.1738 183.0502
" />
<path d="M183.1738 183.0502
L182.4595 183.1931
" />
<path d="M183.6023 182.6931
L184.1737 182.6931
" />
<path d="M183.8166 182.1931
L183.8166 183.4788
" />
<path d="M183.8166 183.4788
L183.8880 183.6217
" />
<path d="M183.8880 183.6217
L184.0309 183.6931
" />
<path d="M184.0309 183.6931
L184.1737 183.6931
" />
<path d="M184.6737 183.5502
L184.7451 183.6217
" />
<path d="M184.7451 183.6217
L184.6737 183.6931
" />
<path d="M184.6737 183.6931
L184.6023 183.6217
" />
<path d="M184.6023 183.6217
L184.6737 183.5502
" />
<path d="M184.6737 183.5502
L184.6737 183.6931
" />
<path d="M184.6737 182.7645
L184.7451 182.8359
" />
<path d="M184.7451 182.8359
L184.6737 182.9074
" />
<path d="M184.6737 182.9074
L184.6023 182.8359
" />
<path d="M184.6023 182.8359
L184.6737 182.7645
" />
<path d="M184.6737 182.7645
L184.6737 182.9074
" />
<path d="M187.6023 182.1217
L186.3166 184.0502
" />
</g></g>
<g style="fill:#840000; fill-opacity:0.0; 
stroke:#840000; stroke-width:0.3000; stroke-opacity:1; 
stroke-linecap:round; stroke-linejoin:round;">
<text x="178.0022" y="180.7572"
textLength="0.9000" font-size="2.0000" lengthAdjust="spacingAndGlyphs"
text-anchor="start" opacity="0"></text>
<g class="stroked-text"><desc></desc>
</g></g>
<g style="fill:#840000; fill-opacity:0.0; 
stroke:#840000; stroke-width:0.1524; stroke-opacity:1; 
stroke-linecap:round; stroke-linejoin:round;">
<text x="178.0022" y="177.7572"
textLength="0.4572" font-size="2.0000" lengthAdjust="spacingAndGlyphs"
text-anchor="start" opacity="0"></text>
<g class="stroked-text"><desc></desc>
</g><text x="178.0022" y="174.7572"
textLength="0.4572" font-size="2.0000" lengthAdjust="spacingAndGlyphs"
text-anchor="start" opacity="0"></text>
<g class="stroked-text"><desc></desc>
</g><text x="178.0022" y="171.7572"
textLength="0.4572" font-size="2.0000" lengthAdjust="spacingAndGlyphs"
text-anchor="start" opacity="0"></text>
<g class="stroked-text"><desc></desc>
</g><text x="178.0022" y="168.7572"
textLength="0.4572" font-size="2.0000" lengthAdjust="spacingAndGlyphs"
text-anchor="start" opacity="0"></text>
<g class="stroked-text"><desc></desc>
</g><path d="M197.0022 191.5072
L197.0022 194.5072
" />
<path d="M261.0022 191.5072
L261.0022 198.0072
" />
</g> 
</svg>
